<svg xmlns="http://www.w3.org/2000/svg" viewBox="0 0 900 1100" role="img" aria-labelledby="title">
  <title id="title">ORIGO Nocturne 01 perfume bottle</title>
  <defs>
    <linearGradient id="bg" x1="0" y1="0" x2="1" y2="1">
      <stop stop-color="#b9d4e5"/>
      <stop offset=".52" stop-color="#e8ddd4"/>
      <stop offset="1" stop-color="#f3efe9"/>
    </linearGradient>
    <radialGradient id="halo">
      <stop stop-color="#fff" stop-opacity=".86"/>
      <stop offset="1" stop-color="#fff" stop-opacity="0"/>
    </radialGradient>
    <linearGradient id="glass" x1="0" y1="0" x2="1" y2="1">
      <stop stop-color="#fff" stop-opacity=".82"/>
      <stop offset=".18" stop-color="#fff" stop-opacity=".18"/>
      <stop offset=".72" stop-color="#8ea3ae" stop-opacity=".2"/>
      <stop offset="1" stop-color="#fff" stop-opacity=".58"/>
    </linearGradient>
    <linearGradient id="juice" x1="0" y1="0" x2="0" y2="1">
      <stop stop-color="#8e233b" stop-opacity=".72"/>
      <stop offset="1" stop-color="#3f0919" stop-opacity=".94"/>
    </linearGradient>
    <linearGradient id="gold" x1="0" y1="0" x2="1" y2="0">
      <stop stop-color="#76531c"/>
      <stop offset=".25" stop-color="#f6d67a"/>
      <stop offset=".5" stop-color="#9f752e"/>
      <stop offset=".78" stop-color="#ffe49a"/>
      <stop offset="1" stop-color="#6b4818"/>
    </linearGradient>
    <filter id="shadow" x="-30%" y="-30%" width="160%" height="180%">
      <feDropShadow dx="0" dy="34" stdDeviation="28" flood-color="#263641" flood-opacity=".38"/>
    </filter>
  </defs>
  <rect width="900" height="1100" fill="url(#bg)"/>
  <circle cx="445" cy="430" r="430" fill="url(#halo)"/>
  <path d="M0 930C180 860 288 1014 474 938c155-63 272-37 426 10v152H0Z" fill="#74152c" opacity=".12"/>
  <ellipse cx="450" cy="958" rx="292" ry="62" fill="#263641" opacity=".18"/>
  <g filter="url(#shadow)">
    <path d="M308 214 362 143h176l54 71 67 55v66H241v-66Z" fill="url(#glass)" stroke="#fff" stroke-opacity=".75" stroke-width="8"/>
    <rect x="354" y="121" width="192" height="105" rx="18" fill="url(#gold)"/>
    <rect x="380" y="92" width="140" height="45" rx="8" fill="#2b1719"/>
    <rect x="389" y="99" width="122" height="7" rx="3" fill="#f3d783" opacity=".7"/>
    <rect x="180" y="300" width="540" height="630" rx="68" fill="url(#glass)" stroke="#fff" stroke-opacity=".88" stroke-width="10"/>
    <path d="M207 484h486v372c0 27-22 49-49 49H256c-27 0-49-22-49-49Z" fill="url(#juice)"/>
    <path d="M229 331h42v520c0 23 13 42 34 54h-58c-22 0-40-18-40-40V370c0-21 8-33 22-39Z" fill="#fff" opacity=".42"/>
    <path d="M649 339c22 18 29 37 29 68v414c0 33-16 61-42 81" fill="none" stroke="#fff" stroke-opacity=".5" stroke-width="18" stroke-linecap="round"/>
    <rect x="278" y="514" width="344" height="246" rx="4" fill="#f8f2e8"/>
    <path d="M310 548h280" stroke="#b48a38" stroke-width="3"/>
    <text x="450" y="606" text-anchor="middle" font-family="Georgia,serif" font-size="30" letter-spacing="10" fill="#6d0d24">ORIGO</text>
    <text x="450" y="662" text-anchor="middle" font-family="Georgia,serif" font-size="38" fill="#171011">NOCTURNE</text>
    <text x="450" y="704" text-anchor="middle" font-family="Arial,sans-serif" font-size="17" letter-spacing="7" fill="#8a6b32">01 · PARFUM</text>
  </g>
</svg>
